<svg width="224" height="70" viewBox="0 0 224 70" fill="none" xmlns="http://www.w3.org/2000/svg">
<path d="M22 17.5044H28.7373V20.8789C30.377 18.6443 32.5932 17.0671 36.1395 17.0671C41.681 17.0671 46.9555 21.3615 46.9555 29.2052V29.2926C46.9555 37.1363 41.7695 41.4306 36.1395 41.4306C32.549 41.4306 30.3327 39.8097 28.7373 37.9249V48.0033H22V17.5044ZM40.2182 29.2911V29.2036C40.2182 25.3044 37.5581 22.7184 34.4114 22.7184C31.2647 22.7184 28.6488 25.3044 28.6488 29.2036V29.2911C28.6488 33.1902 31.2647 35.7762 34.4114 35.7762C37.5581 35.7762 40.2182 33.2356 40.2182 29.2911Z" fill="black"/>
<path d="M48.941 17.5029H55.6783V22.2359C57.0525 19.0378 59.2246 16.8907 63.2575 17.0656V24.0333H62.9036C58.4269 24.0333 55.6783 26.663 55.6783 32.3142V40.9903H48.941V17.5029Z" fill="black"/>
<path d="M63.5649 29.3781V29.2907C63.5649 22.5431 69.0622 17.0652 76.4645 17.0652C83.8668 17.0652 89.2755 22.4104 89.2755 29.2032V29.2907C89.2755 36.0382 83.7784 41.5161 76.376 41.5161C68.9737 41.5161 63.5649 36.1709 63.5649 29.3781ZM82.6251 29.3781V29.2907C82.6251 25.8287 80.0993 22.8055 76.3744 22.8055C72.6496 22.8055 70.2138 25.6975 70.2138 29.2032V29.2907C70.2138 32.7527 72.7397 35.7758 76.4645 35.7758C80.1893 35.7758 82.6251 32.8838 82.6251 29.3781Z" fill="black"/>
<path d="M140.203 9.00146H146.94V20.8319C148.492 18.8596 150.531 17.0638 153.898 17.0638C159.04 17.0638 161.966 20.3509 161.966 25.7836V40.9884H155.229V27.887C155.229 24.7326 153.766 23.1102 151.15 23.1102C148.534 23.1102 146.938 24.7311 146.938 27.887V40.9884H140.201V9.00146H140.203Z" fill="black"/>
<path d="M163.42 34.2418V34.1543C163.42 29.0715 167.365 26.6619 172.995 26.6619C175.432 26.6619 177.073 27.057 178.802 27.6254V27.2303C178.802 24.4258 177.073 22.936 173.703 22.936C171.088 22.936 169.315 23.3749 167.144 24.2072L165.459 19.1243C168.076 18.0297 170.646 17.2395 174.68 17.2395C178.403 17.2395 180.975 18.1593 182.703 19.8692C184.475 21.6212 185.275 24.2072 185.275 27.3615V40.9893H178.759V38.4471C177.119 40.2428 174.902 41.4265 171.578 41.4265C167.101 41.4265 163.422 38.928 163.422 34.2402L163.42 34.2418ZM178.89 32.7083V31.5246C177.692 30.9984 176.23 30.6486 174.59 30.6486C171.709 30.6486 169.936 31.7885 169.936 33.8904V33.9779C169.936 35.7737 171.443 36.8261 173.615 36.8261C176.808 36.8261 178.89 35.1615 178.89 32.7067V32.7083Z" fill="black"/>
<path d="M189.287 34.3285V23.1993H186.449V17.5027H189.287V11.4985H196.024V17.5027H201.61V23.1993H196.024V33.2339C196.024 34.7674 196.733 35.5122 198.195 35.5122C199.393 35.5122 200.501 35.2498 201.519 34.6799V40.0251C200.101 40.8575 198.461 41.3837 196.201 41.3837C192.122 41.3837 189.287 39.7628 189.287 34.3285Z" fill="black"/>
<path d="M91.7693 24.4474C91.6982 24.5973 90.7221 28.584 91.2449 31.4322C91.7693 34.2805 93.7692 36.6447 96.483 37.6644C99.1969 38.6857 102.054 37.9861 102.054 37.9861C102.054 37.9861 96.6331 35.1846 97.1023 29.8722C97.6489 23.6931 104.577 24.1225 104.577 24.1225C104.577 24.1225 101.292 20.9526 97.911 21.4898C94.5306 22.0269 92.1974 23.5322 91.7693 24.4442V24.4474Z" fill="url(#paint0_linear_1490_14658)"/>
<path d="M137.179 24.4474C137.25 24.5973 138.227 28.584 137.704 31.4322C137.179 34.2805 135.179 36.6447 132.465 37.6644C129.752 38.6857 126.894 37.9861 126.894 37.9861C126.894 37.9861 132.315 35.1846 131.846 29.8722C131.299 23.6931 124.371 24.1225 124.371 24.1225C124.371 24.1225 127.657 20.9526 131.037 21.4898C134.418 22.0269 136.751 23.5322 137.179 24.4442V24.4474Z" fill="url(#paint1_linear_1490_14658)"/>
<path d="M111.158 21.8661C111.071 21.7848 110.964 21.6896 110.837 21.5834C110.076 20.9385 108.637 19.8688 106.926 18.8867C103.064 16.6677 98.7148 16.2023 95.0167 19.0537C90.7469 22.347 91.2003 26.9692 91.1418 28.37C91.1797 27.4611 92.742 25.8215 93.3123 25.1626C93.9868 24.3818 94.7514 23.6712 95.6296 23.1559C97.1114 22.2846 98.7826 22.0972 100.425 22.5063C102.872 23.1138 105.123 24.5286 106.785 25.9167" fill="url(#paint2_linear_1490_14658)"/>
<path d="M134.143 34.7927C132.506 36.0576 130.51 36.4979 128.532 35.9967C124.802 35.0504 121.841 31.515 119.717 28.356C119.526 28.5418 118.427 29.6239 118.239 29.8035C116.988 31.0059 116.664 31.3651 115.408 32.6003C117.203 35.2362 119.258 38.0033 122.042 39.6101C124.283 40.9032 126.855 41.8244 129.436 41.4215C133.08 40.8532 136.451 38.0657 137.454 34.2665C137.809 32.9204 137.857 31.5306 137.857 30.1439C136.983 32.1755 134.999 34.1353 134.144 34.7958L134.143 34.7927Z" fill="url(#paint3_linear_1490_14658)"/>
<path d="M137.855 28.3685C137.817 27.4596 136.254 25.82 135.685 25.1609C135.01 24.3802 134.246 23.6697 133.367 23.1544C131.885 22.283 130.214 22.0956 128.571 22.5047C124.57 23.4995 121.175 26.9787 118.237 29.8035C114.663 33.2405 111.236 37.1397 106.954 39.6086C104.712 40.9015 102.14 41.8228 99.5592 41.42C95.9149 40.8515 92.544 38.0642 91.5408 34.2648C91.1854 32.9188 91.1381 31.529 91.1381 30.1424C92.0116 32.174 93.9956 34.1337 94.8503 34.7943C96.4868 36.0591 98.4835 36.4995 100.461 35.9982C104.559 34.9582 108.001 31.3494 111.01 28.459C112.941 26.6429 114.762 24.8565 116.597 23.0919C118.268 21.4867 120.074 20.0328 122.068 18.8867C125.93 16.6677 130.279 16.2023 133.977 19.0537C138.247 22.347 137.793 26.9692 137.852 28.37L137.855 28.3685Z" fill="url(#paint4_linear_1490_14658)"/>
<path d="M62.6151 58.5645L65.6265 53.304H66.8228L69.8754 58.5645H68.4832L67.8438 57.4124H64.4714L63.8527 58.5645H62.6151ZM64.9974 56.4643H67.3282L66.1834 54.3234L64.9974 56.4643ZM71.2005 58.5645V54.2521H71.9327L75.6351 57.1169V54.2521H76.5942V58.5645H75.862L72.1699 55.659V58.5645H71.2005ZM118.128 54.2419H114.261V57.5756H118.128V56.4032H116.107V55.506H119.335V57.3207C119.335 58.3096 119.015 58.5645 118.015 58.5645H114.343C113.343 58.5645 113.023 58.3096 113.023 57.3207V54.5477C113.023 53.5588 113.343 53.304 114.343 53.304H118.015C118.984 53.304 119.335 53.5486 119.335 54.4967C119.335 54.5375 119.335 54.5783 119.335 54.6191L118.128 54.8332V54.2419ZM121.567 58.5645V54.2521H125.497C126.198 54.2521 126.517 54.4865 126.517 55.088V56.1076C126.517 56.6988 126.198 56.9333 125.497 56.9333H124.898L126.971 58.5645H125.445L123.619 56.9333H122.619V58.5645H121.567ZM125.043 54.9963H122.619V56.1891H125.043C125.363 56.1891 125.527 56.1279 125.527 55.8424V55.3429C125.527 55.0575 125.363 54.9963 125.043 54.9963ZM128.171 55.2716C128.171 54.4458 128.45 54.2521 129.306 54.2521H132.679C133.534 54.2521 133.813 54.4458 133.813 55.2716V57.545C133.813 58.3605 133.534 58.5645 132.679 58.5645H129.306C128.44 58.5645 128.171 58.3605 128.171 57.545V55.2716ZM129.234 57.7387H132.75V55.0473H129.234V57.7387ZM136.709 54.2521V57.7591H139.741V54.2521H140.814V57.545C140.814 58.3504 140.535 58.5645 139.669 58.5645H136.782C135.915 58.5645 135.647 58.3504 135.647 57.545V54.2521H136.709ZM146.233 54.9963H143.809V56.1381H146.233C146.553 56.1381 146.718 56.0769 146.718 55.7915V55.3429C146.718 55.0575 146.553 54.9963 146.233 54.9963ZM142.757 58.5645V54.2521H146.687C147.388 54.2521 147.707 54.4763 147.707 55.088V56.0464C147.707 56.6479 147.388 56.8824 146.687 56.8824H143.809V58.5645H142.757ZM158.078 54.2419H154.737V57.5756H158.078V56.4439L159.316 56.6988V57.3207C159.316 58.3096 158.996 58.5645 157.996 58.5645H154.819C153.819 58.5645 153.499 58.3096 153.499 57.3207V54.5477C153.499 53.5588 153.819 53.304 154.819 53.304H157.996C158.996 53.304 159.316 53.5588 159.316 54.5477V55.0473L158.078 55.241V54.2419ZM161.377 55.2716C161.377 54.4458 161.655 54.2521 162.511 54.2521H165.883C166.74 54.2521 167.017 54.4458 167.017 55.2716V57.545C167.017 58.3605 166.74 58.5645 165.883 58.5645H162.511C161.645 58.5645 161.377 58.3605 161.377 57.545V55.2716ZM162.439 57.7387H165.956V55.0473H162.439V57.7387ZM168.852 58.5645V54.2521H169.708L171.843 56.8109L173.967 54.2521H174.823V58.5645H173.833V55.5978L171.884 58.0446H171.678L169.708 55.6691V58.5645H168.852ZM180.233 54.9963H177.81V56.1381H180.233C180.553 56.1381 180.718 56.0769 180.718 55.7915V55.3429C180.718 55.0575 180.553 54.9963 180.233 54.9963ZM176.758 58.5645V54.2521H180.687C181.389 54.2521 181.708 54.4763 181.708 55.088V56.0464C181.708 56.6479 181.389 56.8824 180.687 56.8824H177.81V58.5645H176.758ZM184.062 56.8313H186.063L185.042 55.0371L184.062 56.8313ZM181.999 58.5645L184.588 54.2521H185.609L188.239 58.5645H187.043L186.496 57.6164H183.609L183.062 58.5645H181.999ZM189.327 58.5645V54.2521H190.059L193.762 57.1169V54.2521H194.72V58.5645H193.989L190.297 55.659V58.5645H189.327ZM198.319 58.5645V56.6275L195.937 54.2521H197.37L198.928 55.8628L200.506 54.2521H201.753L199.381 56.6071V58.5645H198.319Z" fill="black"/>
<path d="M87.5335 54.2215H84.0477V55.3531H87.3685C88.3689 55.3531 88.6989 55.608 88.6989 56.5969V57.3207C88.6989 58.3096 88.3689 58.5645 87.3685 58.5645H84.0786C83.0783 58.5645 82.7483 58.3096 82.7483 57.3207V57.178L83.8414 56.9537V57.5756H87.6057V56.3726H84.2849C83.2845 56.3726 82.9649 56.1177 82.9649 55.1288V54.5477C82.9649 53.5588 83.2845 53.304 84.2849 53.304H87.3066C88.2554 53.304 88.6267 53.5486 88.6267 54.456V54.5681L87.5335 54.823V54.2215ZM91.2523 58.5645V53.304H92.2527L94.7587 56.4847L97.2132 53.304H98.2033V58.5645H97.0585V55.3123C97.0585 55.2104 97.0689 55.0269 97.0998 54.7516C96.9864 54.9861 96.8832 55.1798 96.7904 55.3021L94.7897 57.9324H94.5422L92.5414 55.2919C92.4177 55.1288 92.3042 54.9555 92.2217 54.7516C92.2423 54.9657 92.2527 55.139 92.2527 55.3123V58.5645H91.2523ZM105.42 54.2215H101.934V55.3531H105.255C106.256 55.3531 106.585 55.608 106.585 56.5969V57.3207C106.585 58.3096 106.256 58.5645 105.255 58.5645H101.965C100.965 58.5645 100.635 58.3096 100.635 57.3207V57.178L101.728 56.9537V57.5756H105.492V56.3726H102.172C101.171 56.3726 100.852 56.1177 100.852 55.1288V54.5477C100.852 53.5588 101.171 53.304 102.172 53.304H105.193C106.142 53.304 106.513 53.5486 106.513 54.456V54.5681L105.42 54.823V54.2215Z" fill="#0093DA"/>
<defs>
<linearGradient id="paint0_linear_1490_14658" x1="91.0917" y1="29.8254" x2="104.579" y2="29.8254" gradientUnits="userSpaceOnUse">
<stop stop-color="#00E5FF"/>
<stop offset="0.12" stop-color="#29B8FE"/>
<stop offset="0.29" stop-color="#5E81FD"/>
<stop offset="0.46" stop-color="#8952FD"/>
<stop offset="0.62" stop-color="#AB2EFC"/>
<stop offset="0.76" stop-color="#C415FC"/>
<stop offset="0.9" stop-color="#D205FC"/>
<stop offset="1" stop-color="#D800FC"/>
</linearGradient>
<linearGradient id="paint1_linear_1490_14658" x1="124.37" y1="9.00194" x2="137.855" y2="9.00194" gradientUnits="userSpaceOnUse">
<stop stop-color="#00E5FF"/>
<stop offset="0.12" stop-color="#29B8FE"/>
<stop offset="0.29" stop-color="#5E81FD"/>
<stop offset="0.46" stop-color="#8952FD"/>
<stop offset="0.62" stop-color="#AB2EFC"/>
<stop offset="0.76" stop-color="#C415FC"/>
<stop offset="0.9" stop-color="#D205FC"/>
<stop offset="1" stop-color="#D800FC"/>
</linearGradient>
<linearGradient id="paint2_linear_1490_14658" x1="91.1418" y1="22.7187" x2="111.158" y2="22.7187" gradientUnits="userSpaceOnUse">
<stop stop-color="#00E5FF"/>
<stop offset="0.12" stop-color="#29B8FE"/>
<stop offset="0.29" stop-color="#5E81FD"/>
<stop offset="0.46" stop-color="#8952FD"/>
<stop offset="0.62" stop-color="#AB2EFC"/>
<stop offset="0.76" stop-color="#C415FC"/>
<stop offset="0.9" stop-color="#D205FC"/>
<stop offset="1" stop-color="#D800FC"/>
</linearGradient>
<linearGradient id="paint3_linear_1490_14658" x1="115.407" y1="34.9349" x2="137.854" y2="34.9349" gradientUnits="userSpaceOnUse">
<stop stop-color="#00E5FF"/>
<stop offset="0.12" stop-color="#29B8FE"/>
<stop offset="0.29" stop-color="#5E81FD"/>
<stop offset="0.46" stop-color="#8952FD"/>
<stop offset="0.62" stop-color="#AB2EFC"/>
<stop offset="0.76" stop-color="#C415FC"/>
<stop offset="0.9" stop-color="#D205FC"/>
<stop offset="1" stop-color="#D800FC"/>
</linearGradient>
<linearGradient id="paint4_linear_1490_14658" x1="91.1218" y1="30.3226" x2="137.901" y2="28.2234" gradientUnits="userSpaceOnUse">
<stop stop-color="#00E5FF"/>
<stop offset="0.12" stop-color="#29B8FE"/>
<stop offset="0.29" stop-color="#5E81FD"/>
<stop offset="0.46" stop-color="#8952FD"/>
<stop offset="0.62" stop-color="#AB2EFC"/>
<stop offset="0.76" stop-color="#C415FC"/>
<stop offset="0.9" stop-color="#D205FC"/>
<stop offset="1" stop-color="#D800FC"/>
</linearGradient>
</defs>
</svg>
