<svg width="147" height="24" viewBox="0 0 147 24" fill="none" xmlns="http://www.w3.org/2000/svg">
<path d="M0 4.32861H6.12433L11.0155 11.8745L15.9185 4.32861H22.0339V19.424H17.1428V11.3681L12.2398 19.424H9.78232L4.89116 11.3681V19.424H0V4.32861Z" fill="#003AFC"/>
<path d="M25.6443 4.32861H40.3296V8.20142H30.5325V10.1343H40.3148V13.6255H30.5325V15.5476H40.3148V19.424H25.6443V4.32861Z" fill="#003AFC"/>
<path d="M43.6882 4.32861H49.8007L54.7067 11.8745L59.6067 4.32861H65.7222V19.424H60.831V11.3681L55.928 19.424H53.4824L48.5794 11.3681V19.424H43.6882V4.32861Z" fill="#003AFC"/>
<path d="M101.81 19.5067V9.08297H95.929V4.24374H112.645V9.08297H106.755V19.5067H101.81Z" fill="#003AFC"/>
<path d="M116.931 4.24374H122.813L129.631 19.5067H124.049L123.047 16.8963H116.694L115.695 19.5067H110.125L116.931 4.24374ZM118.117 13.159H121.6L119.863 8.65147L118.117 13.159Z" fill="#003AFC"/>
<path d="M138.206 11.1689H146.438V19.5385H144.067L143.833 17.2705C142.425 18.943 140.276 19.5385 138.227 19.5385C133.659 19.5171 129.927 17.9338 129.927 12.4063V11.3365C129.909 5.80898 133.647 4.22562 138.227 4.20422C142.434 4.20422 145.899 5.58431 146.433 10.0776H141.393C141.072 9.57556 140.615 9.22574 140.101 9.08981C139.484 8.90784 138.85 8.82037 138.215 8.82948C136.274 8.86158 134.631 9.29664 134.658 11.6824V12.039C134.631 14.439 136.274 14.8527 138.215 14.8919C140.083 14.8919 141.275 14.7635 141.989 13.6544H138.206V11.1689Z" fill="#003AFC"/>
<path d="M91.3343 7.1893V16.7608C91.3304 17.4301 91.1066 18.0705 90.7118 18.5421C90.3169 19.0138 89.7831 19.2785 89.2266 19.2785H88.8828C87.7978 19.2785 87.0864 19.578 87.2376 20.8689C87.2848 21.2575 87.262 21.6537 87.1706 22.0307C87.0792 22.4076 86.9214 22.7565 86.7079 23.0536C86.4944 23.3506 86.2303 23.5889 85.9335 23.7522C85.6366 23.9155 85.3141 24 84.9876 24H77.3693C77.0706 24.0005 76.7748 23.93 76.4987 23.7927C76.2227 23.6555 75.9719 23.454 75.7607 23.1999C75.5495 22.9458 75.382 22.6441 75.2679 22.3121C75.1538 21.98 75.0953 21.6241 75.0956 21.2648V20.384C75.0956 20.2385 75.0718 20.0944 75.0254 19.9601C74.979 19.8257 74.9111 19.7037 74.8254 19.601C74.7398 19.4983 74.6381 19.4169 74.5263 19.3616C74.4145 19.3062 74.2947 19.278 74.1737 19.2785H72.656C72.053 19.2785 71.4747 18.9903 71.0483 18.4773C70.6219 17.9644 70.3823 17.2687 70.3823 16.5432V15.0027C70.382 14.6433 70.4405 14.2875 70.5546 13.9554C70.6687 13.6233 70.8362 13.3216 71.0474 13.0675C71.2586 12.8135 71.5094 12.612 71.7854 12.4747C72.0615 12.3374 72.3573 12.267 72.656 12.2675H73.9366C74.5396 12.2675 75.1179 12.5556 75.5443 13.0686C75.9707 13.5815 76.2102 14.2772 76.2102 15.0027V16.9355C76.2102 17.1483 76.2805 17.3524 76.4056 17.5029C76.5307 17.6534 76.7003 17.7379 76.8772 17.7379H85.0114C85.1577 17.7398 85.3028 17.7066 85.4384 17.6404C85.5739 17.5741 85.6972 17.476 85.8009 17.3519C85.9046 17.2278 85.9868 17.0801 86.0426 16.9173C86.0984 16.7546 86.1267 16.5802 86.126 16.4042V7.389C86.1263 7.22275 86.0995 7.05804 86.047 6.90426C85.9945 6.75049 85.9173 6.61067 85.8198 6.49278C85.7224 6.37489 85.6066 6.28125 85.4791 6.2172C85.3515 6.15314 85.2148 6.11993 85.0766 6.11946H77.2151C76.9385 6.11993 76.6645 6.05479 76.4088 5.92776C76.1531 5.80072 75.9207 5.6143 75.725 5.37914C75.5292 5.14398 75.3739 4.8647 75.268 4.55728C75.162 4.24985 75.1075 3.92032 75.1075 3.58752V2.53551C75.1075 1.86305 75.3296 1.21814 75.7248 0.742634C76.1201 0.267134 76.6562 0 77.2151 0L85.1536 0C85.7126 0 86.2487 0.267134 86.644 0.742634C87.0392 1.21814 87.2613 1.86305 87.2613 2.53551V3.56612C87.2613 3.84986 87.355 4.12198 87.5218 4.32261C87.6885 4.52324 87.9147 4.63596 88.1506 4.63596H89.2266C89.5048 4.63548 89.7803 4.70132 90.0371 4.82969C90.294 4.95805 90.5271 5.1464 90.7231 5.38383C90.9191 5.62126 91.074 5.90307 91.1789 6.21297C91.2838 6.52287 91.3366 6.85471 91.3343 7.1893Z" fill="#003AFC"/>
<path d="M75.5522 7.75976C75.2374 7.37989 74.8634 7.0785 74.4516 6.87285C74.0398 6.6672 73.5984 6.56134 73.1525 6.56134C72.7067 6.56134 72.2652 6.6672 71.8534 6.87285C71.4416 7.0785 71.0676 7.37989 70.7529 7.75976" stroke="#3127FF" stroke-width="0.85373" stroke-miterlimit="10" stroke-linecap="round"/>
<path d="M74.4049 9.05086C74.0747 8.65366 73.6268 8.43051 73.1598 8.43051C72.6929 8.43051 72.245 8.65366 71.9148 9.05086" stroke="#3127FF" stroke-width="0.85373" stroke-miterlimit="10" stroke-linecap="round"/>
<path d="M73.154 11.3181C73.5224 11.3181 73.821 10.9589 73.821 10.5158C73.821 10.0726 73.5224 9.71338 73.154 9.71338C72.7857 9.71338 72.4871 10.0726 72.4871 10.5158C72.4871 10.9589 72.7857 11.3181 73.154 11.3181Z" fill="#003AFC"/>
</svg>
