<svg width="23" height="24" viewBox="0 0 23 24" fill="none" xmlns="http://www.w3.org/2000/svg">
<g clip-path="url(#clip0_2304_7762)">
<path d="M0.490824 11.451C0.490285 13.3986 0.99916 15.3002 1.96678 16.9763L0.398285 22.7032L6.25897 21.1665C7.87997 22.0489 9.69616 22.5113 11.5418 22.5114H11.5466C17.6394 22.5114 22.599 17.5536 22.6016 11.4598C22.6028 8.50686 21.4539 5.73015 19.3665 3.64111C17.2794 1.55224 14.5037 0.40125 11.5462 0.399902C5.45272 0.399902 0.493429 5.35748 0.490914 11.451" fill="url(#paint0_linear_2304_7762)"/>
<path d="M0.0961328 11.4475C0.0955039 13.4652 0.622617 15.4348 1.62473 17.1709L0 23.1031L6.07083 21.5113C7.74354 22.4233 9.62685 22.9041 11.5432 22.9049H11.5482C17.8595 22.9049 22.9973 17.7687 23 11.4567C23.0011 8.3977 21.8108 5.52117 19.6488 3.35728C17.4866 1.19366 14.6116 0.00125781 11.5482 0C5.23573 0 0.0986484 5.13547 0.0961328 11.4475ZM3.71154 16.8719L3.48486 16.5121C2.53198 14.997 2.02903 13.2461 2.02975 11.4483C2.03173 6.20183 6.30146 1.93344 11.5518 1.93344C14.0943 1.93452 16.4838 2.92567 18.281 4.72398C20.0782 6.52248 21.0671 8.91322 21.0665 11.456C21.0641 16.7024 16.7943 20.9713 11.5482 20.9713H11.5444C9.83618 20.9704 8.16087 20.5117 6.69983 19.6448L6.35213 19.4386L2.74958 20.3831L3.71154 16.8719Z" fill="url(#paint1_linear_2304_7762)"/>
<path d="M8.68591 6.66171C8.47155 6.18527 8.24595 6.17566 8.04209 6.1673C7.87516 6.16011 7.68434 6.16065 7.49369 6.16065C7.30286 6.16065 6.99281 6.23244 6.73073 6.51859C6.46839 6.80501 5.72916 7.49717 5.72916 8.90493C5.72916 10.3127 6.75454 11.6733 6.89748 11.8644C7.04061 12.0551 8.87701 15.0365 11.7854 16.1834C14.2026 17.1366 14.6945 16.947 15.2191 16.8992C15.7438 16.8516 16.9121 16.2073 17.1505 15.5391C17.389 14.871 17.389 14.2983 17.3175 14.1787C17.246 14.0594 17.0551 13.9878 16.769 13.8448C16.4828 13.7018 15.076 13.0094 14.8137 12.9139C14.5514 12.8185 14.3606 12.7709 14.1698 13.0574C13.979 13.3435 13.431 13.9878 13.264 14.1787C13.0972 14.3699 12.9301 14.3938 12.6441 14.2506C12.3577 14.1071 11.4362 13.8053 10.3429 12.8306C9.49226 12.0721 8.91798 11.1355 8.75105 10.849C8.58412 10.5629 8.73317 10.4078 8.87665 10.2653C9.00522 10.137 9.16289 9.93113 9.30611 9.76411C9.44878 9.597 9.49639 9.47777 9.59181 9.28695C9.68731 9.09594 9.63952 8.92883 9.56809 8.78571C9.49639 8.64259 8.94035 7.22746 8.68591 6.66171Z" fill="white"/>
</g>
<defs>
<linearGradient id="paint0_linear_2304_7762" x1="1110.57" y1="2230.73" x2="1110.57" y2="0.399902" gradientUnits="userSpaceOnUse">
<stop stop-color="#1FAF38"/>
<stop offset="1" stop-color="#60D669"/>
</linearGradient>
<linearGradient id="paint1_linear_2304_7762" x1="1150" y1="2310.31" x2="1150" y2="0" gradientUnits="userSpaceOnUse">
<stop stop-color="#F9F9F9"/>
<stop offset="1" stop-color="white"/>
</linearGradient>
<clipPath id="clip0_2304_7762">
<rect width="23" height="23.1797" fill="white"/>
</clipPath>
</defs>
</svg>
